# generated from PmQm by Jehee Lee
:FULLY-SPECIFIED
:DEGREES
685
root 3.062533658 39.10022876 -50.02256552 -125.6969502 -85.71491495 126.6627339
RightUpLeg -14.26893349 -0.2387472705 -7.008718985
RightLeg 59.53519374 -0.8785352339 -11.90244996
RightFoot 10.58698237 11.45383122 7.018173564
RightToes 2.32829e-010 -1.59028e-015 9.93923e-017
Spine -6.315187585 0.1881540979 -4.080899583
Spine1 11.21637537 0.7403442811 -4.786584006
HEad -9.704885422 -0.1793111848 1.644131506
LeftShoulder1 9.93923e-017 0 1.22299e-017
LeftArm 3.522023335 33.1756349 -76.94828246
LeftForeArm -23.2206879 -14.72302294 -1.994601734
LeftHand 0.92793 6.45217 -3.57146
RightShoulder 1.98785e-016 -4.96962e-017 1.55301e-017
RightArm 20.91748875 -43.21982022 89.5968458
RightForeArm -37.60342559 17.83731527 -3.186553323
RightHand 1.04716 -10.4116 -2.45404
LeftUpLeg -18.28436445 -1.784770062 -0.067152242
LeftLeg 22.86178148 0 0
LeftFoot -5.953344996 -8.332153265 -4.238105249
LeftToes 8.82235e-011 9.04645e-011 1.87288e-011
686
root 1.551036115 39.3243055 -50.17045268 -122.0821569 -86.73018427 122.8755371
RightUpLeg -17.73559475 -0.608864113 -5.397530086
RightLeg 58.36847104 1.35029918 -9.072151303
RightFoot 6.516609795 10.13607339 6.244693591
RightToes 2.32829e-010 -1.59028e-015 9.93923e-017
Spine -6.224798102 -1.022952818 -5.439737597
Spine1 10.74555347 -0.9501929401 -2.762801687
HEad -8.939168264 1.155813541 1.581018609
LeftShoulder1 9.93923e-017 0 1.22299e-017
LeftArm 16.56862281 30.40327029 -78.14285115
LeftForeArm -38.25626847 -20.89606089 4.907431017
LeftHand 0.925915 6.44464 -3.3863
RightShoulder 1.98785e-016 -4.96962e-017 1.55301e-017
RightArm 22.97534893 -47.46687037 88.38872627
RightForeArm -38.47724037 17.9757794 -3.561399452
RightHand 1.02044 -10.2376 -2.25741
LeftUpLeg -15.07931316 -0.9233592211 1.012629428
LeftLeg 22.11748401 0 0
LeftFoot -7.012308964 -10.77721766 -4.518352579
LeftToes 8.82235e-011 9.04645e-011 1.87288e-011
687
root 0.06236575674 39.45480002 -50.29029659 -119.1793936 -87.38884974 119.8119745
RightUpLeg -20.97207625 -0.8607369966 -4.030267134
RightLeg 55.21932374 2.822993231 -6.739134454
RightFoot 3.106247106 8.889863314 6.125350079
RightToes 2.32829e-010 -1.59028e-015 9.93923e-017
Spine -6.476834001 -1.996266867 -6.638626845
Spine1 10.81716567 -2.272585215 -1.176215133
HEad -8.783275448 2.163025137 1.510925589
LeftShoulder1 9.93923e-017 0 1.22299e-017
LeftArm 28.24911652 27.30387139 -78.72481338
LeftForeArm -50.97349422 -24.47461644 12.78925711
LeftHand 0.913312 6.34459 -3.16304
RightShoulder 1.98785e-016 -4.96962e-017 1.55301e-017
RightArm 24.95092971 -51.58391205 86.49370238
RightForeArm -40.64563351 18.51131628 -5.096103606
RightHand 0.9969 -10.0451 -2.20697
LeftUpLeg -12.0077227 0.1661538359 1.923826408
LeftLeg 21.31727047 0 0
LeftFoot -7.859478682 -13.02146057 -4.54288502
LeftToes 8.82235e-011 9.04645e-011 1.87288e-011
688
root -1.418902072 39.52211482 -50.38815354 -109.482374 -87.99781382 109.973414
RightUpLeg -23.76903342 -1.609761322 -2.832016118
RightLeg 50.17925221 3.683920465 -5.068113504
RightFoot 0.1952321608 7.763003781 6.388637647
RightToes 2.32829e-010 -1.59028e-015 9.93923e-017
Spine -6.788023987 -2.989844041 -7.723762149
Spine1 10.93477683 -3.545371936 0.5403474714
HEad -8.843318695 2.986940174 1.472876773
LeftShoulder1 9.93923e-017 0 1.22299e-017
LeftArm 31.88723707 23.92340025 -78.45912758
LeftForeArm -53.63688285 -26.43298621 17.1456967
LeftHand 0.89027 6.12658 -3.34082
RightShoulder 1.98785e-016 -4.96962e-017 1.55301e-017
RightArm 27.40953019 -55.24304649 84.25524685
RightForeArm -43.19013309 19.08278336 -7.056815929
RightHand 1.02418 -10.1508 -2.66158
LeftUpLeg -8.881962821 1.014506025 2.761225903
LeftLeg 20.16884539 0 0
LeftFoot -8.79921971 -15.02615435 -4.444792804
LeftToes 8.82235e-011 9.04645e-011 1.87288e-011
689
root -2.8672005 39.52645185 -50.46495912 -83.14321888 -88.43989417 83.53527061
RightUpLeg -26.01051375 -2.949275085 -1.786243224
RightLeg 43.32183316 4.265185674 -3.718339745
RightFoot -1.091879867 6.723404611 6.388645323
RightToes 2.32829e-010 -1.59028e-015 9.93923e-017
Spine -6.845519161 -4.022498645 -8.720262644
Spine1 10.81351879 -4.81636505 2.402248215
HEad -8.700458735 3.742787612 1.490087455
LeftShoulder1 9.93923e-017 0 1.22299e-017
LeftArm 30.01286693 20.50987836 -77.73300493
LeftForeArm -49.90317989 -28.37589464 18.07386607
LeftHand 0.874162 5.96507 -3.53657
RightShoulder 1.98785e-016 -4.96962e-017 1.55301e-017
RightArm 28.9357223 -58.30468862 81.8964138
RightForeArm -44.13277519 19.34946355 -8.402974779
RightHand 1.06596 -10.3388 -3.23031
LeftUpLeg -5.947838021 1.245947987 3.471052529
LeftLeg 19.05056584 0 0
LeftFoot -10.1533266 -16.40889178 -4.160689742
LeftToes 8.82235e-011 9.04645e-011 1.87288e-011
690
root -4.28790913 39.4131 -50.52193782 -59.73376786 -88.31554326 60.12747414
RightUpLeg -27.65784308 -4.008574829 -0.9865051606
RightLeg 34.86178611 4.503005578 -2.759194631
RightFoot -0.7317145661 5.677636635 6.253618364
RightToes 2.32829e-010 -1.59028e-015 9.93923e-017
Spine -6.99225 -4.80394 -9.49489
Spine1 10.8103 -5.72047 3.70045
HEad -8.50494 4.3499 1.50706
LeftShoulder1 9.93923e-017 0 1.22299e-017
LeftArm 29.324 17.2202 -77.0933
LeftForeArm -48.1612 -29.8036 18.6995
LeftHand 0.872868 5.99207 -3.07255
RightShoulder 1.98785e-016 -4.96962e-017 1.55301e-017
RightArm 28.776 -60.6454 79.5323
RightForeArm -43.3166 19.3197 -8.73957
RightHand 1.06334 -10.2749 -3.3763
LeftUpLeg -3.654224562 0.9156991424 3.884776733
LeftLeg 19.01137567 0 0
LeftFoot -12.15582146 -16.68302189 -3.262681245
LeftToes 8.82235e-011 9.04645e-011 1.87288e-011
691
root -5.72148242 39.2327 -50.56431417 -53.29924656 -88.17994972 53.82845433
RightUpLeg -28.49394116 -3.655071029 -0.4981563384
RightLeg 24.70219948 3.906502596 -2.018553891
RightFoot 0.4217265557 4.643002665 6.050189179
RightToes 2.32829e-010 -1.59028e-015 9.93923e-017
Spine -7.65058 -5.2852 -9.75784
Spine1 11.3122 -6.21112 4.32768
HEad -8.52028 4.71785 1.51934
LeftShoulder1 9.93923e-017 0 1.22299e-017
LeftArm 29.4603 14.1658 -76.6241
LeftForeArm -47.981 -30.6495 19.0576
LeftHand 0.885736 6.13897 -2.34913
RightShoulder 1.98785e-016 -4.96962e-017 1.55301e-017
RightArm 27.6383 -62.1936 77.3537
RightForeArm -41.7608 19.1113 -8.25781
RightHand 1.03651 -10.1069 -3.19424
LeftUpLeg -1.622041156 0.4326007318 4.137991969
LeftLeg 19.4332254 0 0
LeftFoot -14.28959833 -16.23644781 -2.020741007
LeftToes 8.82235e-011 9.04645e-011 1.87288e-011
692
root -7.186386609 39.0802 -50.58606167 -44.21959212 -88.12598516 44.97059258
RightUpLeg -28.25761831 -0.8423702794 -1.00436287
RightLeg 12.99401447 1.497657032 -0.8074059817
RightFoot 1.888481576 3.858660991 5.365679875
RightToes 2.32829e-010 -1.59028e-015 9.93923e-017
Spine -8.6081 -5.6719 -9.68894
Spine1 12.1741 -6.65675 4.99614
HEad -8.60171 4.91217 1.54686
LeftShoulder1 9.93923e-017 0 1.22299e-017
LeftArm 29.7915 11.8395 -76.3575
LeftForeArm -47.9949 -30.8542 19.1422
LeftHand 0.888198 6.19945 -2.12654
RightShoulder 1.98785e-016 -4.96962e-017 1.55301e-017
RightArm 26.0322 -63.0557 75.5544
RightForeArm -39.6685 18.7275 -7.09118
RightHand 1.04538 -10.2148 -3.06739
LeftUpLeg 0.7381107976 0.1802559208 4.526108936
LeftLeg 18.99776389 0 0
LeftFoot -15.63866714 -16.15026597 -1.722381283
LeftToes 8.82235e-011 9.04645e-011 1.87288e-011
693
root -8.735700637 38.8762 -50.57192083 -37.36983007 -87.76790772 38.32593998
RightUpLeg -27.98462409 2.552218444 -2.34152089
RightLeg 3.278181064 -1.108330772 0.3370980484
RightFoot 1.987643272 3.508847216 4.867814601
RightToes 2.32829e-010 -1.59028e-015 9.93923e-017
Spine -9.49751 -6.05755 -10.1279
Spine1 12.8917 -7.15563 5.92882
HEad -8.55562 5.05889 1.51876
LeftShoulder1 9.93923e-017 0 1.22299e-017
LeftArm 29.9484 10.6982 -76.4209
LeftForeArm -47.6176 -30.435 18.9857
LeftHand 0.867906 6.04462 -1.99351
RightShoulder 1.98785e-016 -4.96962e-017 1.55301e-017
RightArm 23.3053 -63.3984 74.2572
RightForeArm -36.4712 18.0456 -5.27696
RightHand 1.09058 -10.5989 -3.03782
LeftUpLeg 3.165667101 0.2967306536 4.918469877
LeftLeg 18.66469744 0 0
LeftFoot -16.19113651 -17.06102287 -2.848519712
LeftToes 8.82235e-011 9.04645e-011 1.87288e-011
694
root -10.38550967 38.601 -50.54340731 -40.20761795 -87.42464336 41.3473594
RightUpLeg -29.33246885 2.652572905 -2.437092995
RightLeg 0.9395911591 -0.2518750657 -0.006735097863
RightFoot -0.5508123719 3.312397642 5.318676044
RightToes 2.32829e-010 -1.59028e-015 9.93923e-017
Spine -10.2439 -6.31079 -10.7884
Spine1 13.3337 -7.44763 6.66218
HEad -8.54849 5.23696 1.35208
LeftShoulder1 9.93923e-017 0 1.22299e-017
LeftArm 29.7653 10.9109 -76.8662
LeftForeArm -47.4502 -29.5983 18.6497
LeftHand 0.826019 5.78296 -1.20192
RightShoulder 1.98785e-016 -4.96962e-017 1.55301e-017
RightArm 18.8351 -63.2616 73.5959
RightForeArm -32.1964 17.001 -3.12863
RightHand 1.1245 -10.9169 -2.9294
LeftUpLeg 5.387055079 0.5379956156 5.269590775
LeftLeg 19.24332481 0 0
LeftFoot -15.8683812 -18.37489049 -4.358675656
LeftToes 8.82235e-011 9.04645e-011 1.87288e-011
695
root -12.08426553 38.4189 -50.52467821 -36.40526461 -87.7814853 37.74048557
RightUpLeg -29.93677855 3.188425835 -1.386318882
RightLeg 1.858433306 0 0
RightFoot -0.7164214636 2.877678852 5.136994538
RightToes 2.32829e-010 -1.59028e-015 9.93923e-017
Spine -10.7843 -6.26734 -10.1272
Spine1 13.8011 -7.57906 7.00812
HEad -8.70347 5.48074 1.07417
LeftShoulder1 9.93923e-017 0 1.22299e-017
LeftArm 29.2754 12.6124 -77.5387
LeftForeArm -48.1855 -28.5891 18.2097
LeftHand 0.801969 5.68333 -0.307163
RightShoulder 1.98785e-016 -4.96962e-017 1.55301e-017
RightArm 13.7765 -62.7281 73.6493
RightForeArm -28.2108 15.8837 -1.35653
RightHand 1.12705 -10.9789 -2.80964
LeftUpLeg 7.619019082 0.5257031498 6.170714308
LeftLeg 19.74237916 0 0
LeftFoot -14.07689863 -19.12364995 -5.909961689
LeftToes 8.82235e-011 9.04645e-011 1.87288e-011
696
root -13.88930668 38.2878 -50.49710903 -7.339870617 -88.00907381 8.769872881
RightUpLeg -29.51267634 3.873839677 -0.5984797752
RightLeg 4.896612906 0 0
RightFoot 2.746572154 1.473025103 3.284847307
RightToes 2.32829e-010 -1.59028e-015 9.93923e-017
Spine -11.0823 -6.32863 -8.25998
Spine1 14.0797 -7.86548 7.06816
HEad -8.76553 5.69424 0.709591
LeftShoulder1 9.93923e-017 0 1.22299e-017
LeftArm 29.0949 15.9192 -78.3907
LeftForeArm -49.8271 -27.3878 17.7096
LeftHand 0.82302 5.83404 -0.371178
RightShoulder 1.98785e-016 -4.96962e-017 1.55301e-017
RightArm 10.2148 -62.1444 74.3148
RightForeArm -26.0691 15.2511 -0.567928
RightHand 1.12095 -10.8908 -2.91922
LeftUpLeg 9.471034819 -0.3024549268 7.810115591
LeftLeg 20.88405566 0 0
LeftFoot -10.75244403 -19.04708253 -8.709059775
LeftToes 8.82235e-011 9.04645e-011 1.87288e-011
